<svg version="1" xmlns="http://www.w3.org/2000/svg" width="1846.667" height="1846.667" viewBox="0 0 1385.000000 1385.000000"><path d="M606 50.6c-57.3 4.1-106.1 13-155 28.2C215.5 152.3 41.4 356.1 6.6 599.1 1.4 635.4.5 648.6.6 693c0 44.2.8 56 6 92 36.1 251 220.1 459.4 464.9 526.5 40.5 11.1 78 17.6 121.3 21.1 25.3 2.1 89.9 1.5 112.2-1 83.2-9.2 154.1-29.7 225-65.1l14.5-7.2 7 2.9c17 7.1 39.8 12.6 63 15.3 15.2 1.8 51.5 2 68.5.4 74.3-6.7 164.9-34.9 254.5-79 20.7-10.2 46.5-24 46.5-24.9 0-.4-5.3-1-11.7-1.3-20.3-1.1-37-5.8-57.8-16.2-33.3-16.7-63.5-45.9-88.5-85.7-6.9-11-24.7-45.6-26.9-52.3-1.2-4-1.2-4.1 4.4-14 7.6-13.3 18.9-35.9 26-52C1294 806.8 1302 641.4 1252 490c-53.3-161-170.1-296-322-372.1-71.9-36-144.9-56.9-228-65.5-14.8-1.5-82.2-2.7-96-1.8zm262 116.3c-3.5 9-4.4 18.5-2.6 26.9 2.8 13.6 11 24.5 31.3 42 22.4 19.2 28.2 26.6 28.3 36 0 8.5-5.3 16.2-14.4 20.9-11.4 5.8-34.5 9.3-61.4 9.3h-12.7l7 4.7c8 5.3 36.5 26.3 36.5 26.8 0 .6-11.5-3.8-28-10.6-18.2-7.6-49.5-22.1-75.5-34.9-15.7-7.8-19.1-9.9-16-9.5 2.2.2 21.6.7 43 1 52.4.9 83-1.1 95.5-6.1 3.4-1.4 3.8-1.9 2.9-3.5-.5-1.1-7.5-9-15.5-17.7-8-8.6-16.6-18.8-19.1-22.5-12.4-18.6-15.1-36.9-7.8-53.3 2.4-5.4 9.4-15.9 10.1-15.1.2.2-.5 2.7-1.6 5.6zm-212.4 47c5.4 2.4 7.4 5.5 7.4 11 0 12.1-14.6 28.1-49.5 54.3-22.1 16.7-87.8 59.8-89.1 58.5-.2-.2 8.1-6 18.5-13 22.4-15 49.7-35.3 67.1-49.9 23.1-19.4 43-41.9 43-48.4 0-4.7-9.8-4.4-28.8.6-79 21.1-297.4 142.1-369.2 204.5-13 11.3-22 22.2-22 26.7 0 1.6.8 2 7.2 3.3 3.4.6 18.5-1.6 30.5-4.5 30-7.3 70.7-22.6 117.1-44.3 10-4.7 18.2-8.3 18.2-8.1 0 .7-48.6 24.7-67.5 33.3-30.4 13.9-58.8 24.8-77.9 29.8-13.2 3.4-27.5 3.8-32.3.8-18.9-11.4 7.6-44.6 75.7-95.2 96.4-71.5 245.6-145.7 321.5-159.8 10.9-2 25.2-1.8 30.1.4zm158.5 99.6c37.2 18.2 55.3 27.5 57.2 29.6 4 4.3 3.7 9.1-.7 13.5-2.3 2.3-4.3 3.4-6.4 3.4-4 0-112.9-53.1-115.9-56.6-6.1-6.8.4-18.3 9.3-16.8 1.1.2 26.6 12.3 56.5 26.9zM692 321.4c36.7 5.1 68.4 13.6 99.5 26.8 50.1 21.3 95.3 53.9 129.5 93.4l8.7 10.1-.5 9.6c-.5 10.7 1 27.5 3.9 41.5 2 10 4.9 20.6 5.4 20 .2-.2-.1-5.9-.7-12.8-1.4-16.8-.4-43 2.1-54.7 3.6-17.2 10.8-27.7 20.6-30.2 9.7-2.5 16.6-.7 24.1 6.2 17.9 16.3 29.9 59.3 31.1 111.4.9 38.4-3.4 59.7-14.2 69.1-2.9 2.6-4.4 3.2-8.3 3.2-3.5 0-4.3.3-3.2 1 .8.6 3.8.9 6.5.8l5-.2.8 5.9c1.6 12.5 2.3 39.1 1.6 55-2.6 52.8-18.2 104.9-45.2 151l-5.2 8.9-11.1 4.7c-45.9 19-97 61.5-145.1 120.5l-11.5 14.1-13.2 4.8c-23.7 8.5-48.1 14.5-76.6 18.7-13.7 2-19.4 2.3-49 2.3-22.4 0-36.7-.4-43-1.3-48.8-6.8-85-17.6-124.2-37.3-48.2-24.2-90.5-59.3-123.7-102.8-3.9-5.1-7.1-9.2-7.1-9 0 .2 1.1 4 2.5 8.4 3.1 10 3.1 10.9-.1 13.4-7.4 5.9-22.4-1.8-42-21.3-28.2-28.3-47.3-60.6-46.2-78.3.4-5.7.7-6.7 4.3-10.3 5.1-5.3 9-6.3 16.3-4.4 10.1 2.7 18.2 8.5 36.6 26.3l12.9 12.6-3.3-6c-5.7-10.4-12.9-20.4-20.2-28.1-6.9-7.3-7.1-7.5-9.9-18.1-14.2-52.9-14.7-112.4-1.3-165.8 16.1-64 51.7-122.4 102.4-168.3 5.8-5.3 10.4-10 10.2-10.6-.2-.6-.1-.8.3-.4.4.3 1.4 0 2.3-.7 1-.8 6.9-5.2 13.2-9.8 25.9-18.9 47.8-31.3 76-43.2 7.4-3.1 14.6-6.4 16-7.2 1.4-.9 3.8-1.8 5.5-1.9 1.6-.1 9.8-2.3 18-4.7C565 327 589.3 322.4 614 320c14.4-1.3 64.4-.4 78 1.4zM277.9 542.5c1.6.8 3.4 2.8 4.1 4.4 1.1 2.7 0 8.2-11.6 55.8C256.2 661 256.5 660 249 660c-4.9 0-9-3.4-9-7.5 0-4.8 25.2-105.9 26.9-107.9 3.1-3.6 6.8-4.3 11-2.1zm-26.9 36c-8.5 33.5-17.6 65.4-20.5 71.9-1.3 2.8-1.4 2.2-.9-6.9.3-5.5 1.2-16.3 1.9-24 .8-7.7 1.3-14 1.2-14.2-.1-.1-2.9 3.3-6.2 7.5-9.1 11.7-28.1 30.1-35.5 34.4-12.2 7.1-21.7 7.3-28.6.4-5.1-5.1-6.4-11.3-7.4-36.8-1.1-27.5-2.9-35.2-10.8-45.5-3.2-4.3-12.9-10.7-19.4-12.9-6.8-2.2-4.8-2.9 4.4-1.4 10.2 1.5 18.5 5.8 24.8 12.6 9.8 10.8 14.4 24 17 49.4 1.7 16.3 2.8 21 5 21 4.5 0 23.8-17.8 40.5-37.5 4.2-5 15.6-19 25.3-31.2 9.7-12.2 17.8-22.1 17.9-21.9.1.1-3.8 15.9-8.7 35.1zM1061.8 780c16 11 30.6 24.9 42.3 40.5 29.2 38.9 40.6 93 31.9 151.5-1.8 12.6-7.2 37-8.7 39.3-.3.5-2.3-3.7-4.3-9.4-9.3-26.3-22.9-45.3-40.8-57.3-33-21.9-80.4-19.9-136.4 5.7-4.3 2-7.8 3.1-7.8 2.5 0-.5 1.5-3.8 3.3-7.2 6.6-12.6 22.8-25.5 45-36.1 10.6-5.1 36.8-14.5 40.2-14.5 2.7 0 1.6-1.7-3.4-5.4-11.9-8.7-24.2-12.2-40.9-11.4-30.1 1.5-64.8 22-107.6 63.8-27.2 26.5-53.1 57-80.6 94.7-19.3 26.5-24.1 32.1-39.5 47.1-24 23.4-51.8 42.8-84.5 59.1-26 12.9-46.2 20.4-71.4 26.6-23.6 5.9-33.3 7-59.6 7-20.4 0-25-.3-34.8-2.3-33.7-6.8-58.9-20.4-81.4-44.1-32.2-33.8-49-70.9-49.1-108.6-.1-21.8 4-39.6 13.7-59.9 4.4-9.2 15.1-26.1 18-28.5 1.2-1 3 0 10.1 5.9 19.7 16 41.9 30.2 62.5 39.9l11.5 5.4-4.7 9.6c-19.6 40-8.6 79.8 28.7 104.6 25.2 16.8 61.1 24.4 96 20.5 43.8-5.1 84.6-25 119.3-58.4 12.9-12.5 18.3-18.9 40.9-49.1 30.4-40.6 49.2-62.3 78.9-91.5 45.3-44.4 85.8-69.4 126.8-78.2 7.8-1.6 13.4-2.1 24.6-2.1 18.8.1 29.3 2.6 46.5 11.3 13.8 6.9 17.7 7.5 21.6 3.4 2.2-2.4 2.4-3.3 2.3-12.2-.1-12.3-4.8-30.8-14.6-57.1-2.1-5.7-3.8-10.5-3.8-10.7 0-1 1.8 0 9.8 5.6z"/><path d="M755.5 358.6c-14.2 3.6-27.7 11.7-39.9 24.1-4.2 4.1-7.6 7.9-7.6 8.4 0 .4 5.6-3 12.5-7.6 20.6-14 31.4-18.5 43.7-18.5 11.4.1 18 3.9 26.6 15.5 4.7 6.4 4.9 5 .6-4.1-2.9-6.2-9.3-12.7-15.3-15.6-4.3-2.1-16-3.3-20.6-2.2zM740.7 399.6c-10.9 2.6-21.2 8.9-31.7 19.4-15.8 15.6-37 43.5-57.2 75.1-8.8 13.7-9.9 18.1-5.2 19.9 1.4.6 2.8 1 3.2.9.4 0 3.7-4.2 7.4-9.3 9.8-13.6 27.6-33.4 38.6-43.2 36.7-32.4 68-40.1 93.3-23.1 3.4 2.3 7.9 5.3 9.8 6.6 4.4 3 10.8 3.4 12.4.9 1.6-2.5-.5-11.8-4.8-20.4-6.3-12.9-19.2-23-34.1-26.8-7.6-2-23.7-2-31.7 0zM965.7 457.7c-1.6 2.7-5.8 18.4-7.2 27.2-2.3 13.6-1.6 33 1.5 44.6 1.2 4.4 2.3 8.1 2.5 8.3.2.2 3.1-2.4 6.3-5.7 6.4-6.5 13.4-10.4 17-9.4 3.4.8 5.7 5.7 9 18.8 5.4 21.1 6 32.1 1.9 35-1.2.8-1.6 1.5-1 1.5 1.8 0 4.2-2.8 4.9-5.7 2.1-8.2-2.2-38.6-6.7-47.5-4.6-9-12.5-9.2-23.7-.6-2.9 2.3-5.4 3.9-5.6 3.7-1.4-1.7-2.8-11.6-3.3-23-.6-14.6.5-27.4 3.6-40.4 1.7-7 1.9-8.6.8-6.8z"/><path d="M731 477.5c-32.9 7.4-60.5 42.7-69.9 89.3-11.3 55.8 4.3 117.9 37.5 149.2l5.8 5.5-6.6-7.2c-19.2-20.8-30.9-47.6-35.3-80.6-8.6-66.3 19.9-132.7 63.5-147.8 8.7-3 21.3-3.6 30.4-1.5 32.1 7.5 59.7 44.9 68.7 92.9 4.1 22 3.6 52.1-1.1 73.7-2.2 9.9-8.1 27.2-11.7 34.4-7.7 15.4-20.3 30.9-30.9 38.2-6 4.1-7.1 5.5-2.3 2.7 5.5-3.1 18-15.5 24.2-23.7 7-9.5 15.5-26.5 19.7-39.4 14.1-43.5 10.8-95.9-8.5-134.3-6.6-13.2-11.7-20.3-21.9-30.5-9.9-10-19.3-15.9-30.6-19.4-8.6-2.7-22.6-3.4-31-1.5z"/><path d="M728.1 580.6c-2.5.9-6.3 2.8-8.5 4.2-3.7 2.4-3.9 2.7-1.8 3 1.2.2 4.9-1 8.2-2.7 8-4 15.1-4.8 22.6-2.6 11.4 3.2 20 10.7 26.2 23 1.7 3.3 3.1 5.6 3.2 5.1 0-.5-1.5-3.8-3.2-7.5-4.3-8.5-12.8-17.3-20.5-20.8-7.3-3.4-19.3-4.2-26.2-1.7zM735.3 602.7c-.8.2-1.3 2.2-1.3 4.4 0 7.8-5.9 15.2-14.3 17.9-4.5 1.4-5.2 3.5-4.4 13.1 1.4 16.3 12.2 28.9 24.8 28.9 2.5 0 4.8-.2 5.1-.5.3-.3.1-2.3-.5-4.4-.8-3.1-.7-4.4.9-7.6 2.8-5.7 6.5-8 12.7-8h5.1l.9-4c.5-2.2.6-7.2.4-11.2-1.2-16.4-12.1-29.5-24.4-29.2-2.1 0-4.4.3-5 .6zM780.2 620c0 1.4.2 1.9.5 1.2.2-.6.2-1.8 0-2.5-.3-.6-.5-.1-.5 1.3z"/><path d="M696.6 623.6c-1.9 13.9.2 28.3 5.9 40.2 4.4 9.2 13.6 19.1 21.4 23 5 2.4 6.7 2.7 15.6 2.7 9.1 0 10.5-.3 15.4-2.9 9.3-4.8 20.1-17.6 22.6-26.6.3-1.4-.8.2-2.4 3.4-6.4 12.3-15.2 19.9-26.5 23.2-19.5 5.5-39.4-9.8-46.2-35.6-1.1-4.4-1.7-10.2-1.6-18 0-10.5-.7-14-2.8-14-.4 0-1 2.1-1.4 4.6zM587.3 629.7c.3 1.6 1.3 9.9 2.3 18.5 2.6 23.8 2.4 24-22.9 21.5-33.6-3.3-46.9-3.9-74.6-3.4-29.9.5-44.1 2.3-60.6 7.4-17.5 5.5-33.5 16.7-36.5 25.6-2.5 7.6.8 7.2 15.7-2.1 11.2-7 30.7-12.1 52.8-13.8l9-.7-5.9 6.4c-6.5 7-12.6 18.7-14.5 27.7-1.8 8.5-1.4 22.9.9 31.8 4.1 15.8 11.1 27.5 24.2 40 17.9 17.2 39.1 25.3 62.8 24.1 9.2-.5 25.1-3.9 23.8-5.2-.2-.2-3.3.5-6.8 1.7-5 1.6-9.1 2.1-18 2.1-13.7.1-21.7-1.7-33.8-7.3-49.9-23.4-64.6-86.4-27.2-116.8l5.4-4.5 19.1.6c18.3.5 53.2 3.9 60.5 5.7 4.5 1.2 13.7 9.4 20.2 17.9 9.5 12.6 13.6 23.2 16.4 42.5 1.1 7.4 1.3 2.9.3-6-1.9-17.4-9.5-33.7-21.6-46.5l-6.5-6.9 3.3.6c1.9.3 6.9 1.2 11.1 2 6.6 1.2 8.2 1.3 11 .1 7.1-3.1 9.3-8.9 8.5-22.6-1.1-17-6.1-31.6-13.5-39.4-4.3-4.4-5.6-4.7-4.9-1zM780.2 649c0 1.4.2 1.9.5 1.2.2-.6.2-1.8 0-2.5-.3-.6-.5-.1-.5 1.3z"/><path d="M534.4 699c-6.7 2.2-14.5 8.3-17.8 14l-1.9 3.3 2.9-.7c1.5-.4 3.5-1.7 4.3-2.9 3.1-4.5 8.8-8.8 14.1-10.8 12-4.6 24.7 0 33.9 12.3.7 1 2.4 4.3 3.7 7.5 1.3 3.2 2.4 5.1 2.4 4.2 0-.9-1.6-4.8-3.5-8.6-8-16.1-23-23.2-38.1-18.3z"/><path d="M539.5 716.4c-4.7 2-5.6 3.7-4.4 7.9 1.2 4.6-.7 9.6-5 12.8-3.8 2.8-4 5.5-.7 12.5 4.7 10.1 15.2 14.2 24.5 9.5 3.6-1.9 4.1-2.5 3.5-4.4-1.8-5.7.3-10.9 5.4-12.8 1.9-.7 2.2-1.6 2.2-5.6 0-5.9-2.7-11.8-7.1-16-5.6-5.3-12.1-6.7-18.4-3.9zM705 721.4c0 .2.8 1 1.8 1.7 1.5 1.3 1.6 1.2.3-.4s-2.1-2.1-2.1-1.3zM712 726.4c0 .3.9 1 2 1.6 1.1.6 2 .8 2 .6 0-.3-.9-1-2-1.6-1.1-.6-2-.8-2-.6zM722 732c.8.5 2 1 2.5 1 .6 0 .3-.5-.5-1s-1.9-1-2.5-1c-.5 0-.3.5.5 1z"/><path d="M509 735.6c0 5.9 2.2 16 4.5 21.1 1.3 2.9 4.5 7.5 7.1 10.3 12.3 13.2 30.5 14.3 43.2 2.6 4.5-4 10.2-12 10.2-14 0-.6-.9.5-2.1 2.4-12.7 21.2-37.9 22.9-50.8 3.3-3.5-5.3-7.1-15.8-7.1-20.7 0-2.2-.8-4-2.5-5.6l-2.5-2.3v2.9zM576.1 745.6c0 1.1.3 1.4.6.6.3-.7.2-1.6-.1-1.9-.3-.4-.6.2-.5 1.3zM651 747c-.8 15.6 3.1 26.4 11.2 30.6 3.7 1.9 10.4 1.5 13.9-.9 2.2-1.6 2.1-1.6-2.7-1.1-9.2 1.1-14.2-3.8-18.2-18.1-1.1-3.9-2.5-8.6-3-10.5l-1-3.5-.2 3.5zM599.3 758.5c0 2.2.2 3 .4 1.7.2-1.2.2-3 0-4-.3-.9-.5.1-.4 2.3zM598.1 765.6c0 1.1.3 1.4.6.6.3-.7.2-1.6-.1-1.9-.3-.4-.6.2-.5 1.3zM597.1 769.6c0 1.1.3 1.4.6.6.3-.7.2-1.6-.1-1.9-.3-.4-.6.2-.5 1.3zM595.6 773.5c-.9 2.6-.7 3.2.5 1.2.6-1 .9-2.1.6-2.3-.2-.3-.7.2-1.1 1.1zM294.7 785.4c5.1 4.8 11.6 12.2 14.4 16.4 5 7.5 5.1 7.7 2.8 8-14.6 1.6-16.4 6.4-8.2 21 5.8 10.2 11.1 16.2 14.4 16.1 2.3 0 2.3-.1.3-.9-3.1-1.2-6.1-5.4-10.5-14.7-7.2-15-6.5-16.9 5.6-16.1 4.4.3 7.5.1 7.5-.5 0-.5-1.6-4-3.6-7.7-4.4-8.4-12.6-17.6-20.8-23.4-10.8-7.6-11.3-7.1-1.9 1.8zM584.4 792.2l-1.9 2.3 2.3-1.9c2.1-1.8 2.7-2.6 1.9-2.6-.2 0-1.2 1-2.3 2.2zM578.9 797.7l-2.4 2.8 2.8-2.4c2.5-2.3 3.2-3.1 2.4-3.1-.2 0-1.4 1.2-2.8 2.7zM684 799.9c-19 6.2-27.2 30.2-19.4 57.1 2.3 7.8 9.6 21.6 15.2 28.5 6.1 7.6 15 14.8 23.2 18.7 9 4.4 21.1 5.1 28.8 1.8 11.3-4.8 18.1-16.5 19-32.2 1.2-21.9-7.8-43.2-25.2-59.7-10.7-10-19.8-14.4-31-14.8-4.5-.1-9.2.1-10.6.6z"/></svg>